<svg width="1600" height="760" viewBox="0 0 1600 760" fill="none" xmlns="http://www.w3.org/2000/svg">
  <rect width="1600" height="760" fill="#F4F7FA"/>
  <rect x="0" y="0" width="1600" height="260" fill="#0F172A"/>
  <circle cx="1320" cy="116" r="186" fill="#123347"/>
  <circle cx="1458" cy="154" r="92" fill="#0F766E" fill-opacity="0.24"/>
  <g opacity="0.95">
    <rect x="122" y="346" width="520" height="286" rx="30" fill="white"/>
    <rect x="123" y="347" width="518" height="284" rx="29" stroke="#D8E1EA" stroke-width="2"/>
    <rect x="164" y="390" width="270" height="18" rx="9" fill="#E2E8F0"/>
    <rect x="164" y="426" width="402" height="50" rx="18" fill="#F8FAFC"/>
    <rect x="165" y="427" width="400" height="48" rx="17" stroke="#D8E1EA" stroke-width="2"/>
    <rect x="164" y="504" width="162" height="42" rx="14" fill="#0F766E"/>
    <rect x="344" y="504" width="188" height="42" rx="14" fill="#F8FAFC"/>
    <rect x="345" y="505" width="186" height="40" rx="13" stroke="#D8E1EA" stroke-width="2"/>
    <rect x="164" y="572" width="356" height="16" rx="8" fill="#E2E8F0"/>
  </g>
  <g opacity="0.98">
    <rect x="724" y="292" width="754" height="372" rx="30" fill="white"/>
    <rect x="725" y="293" width="752" height="370" rx="29" stroke="#D8E1EA" stroke-width="2"/>
    <rect x="768" y="340" width="642" height="92" rx="24" fill="#F8FAFC"/>
    <rect x="769" y="341" width="640" height="90" rx="23" stroke="#D8E1EA" stroke-width="2"/>
    <rect x="808" y="374" width="290" height="16" rx="8" fill="#CBD5E1"/>
    <rect x="1330" y="360" width="44" height="44" rx="14" fill="#F8FAFC"/>
    <rect x="1331" y="361" width="42" height="42" rx="13" stroke="#D8E1EA" stroke-width="2"/>
    <path d="M1348 372L1362 382L1348 392V372Z" fill="#0F766E"/>
    <rect x="768" y="474" width="214" height="46" rx="15" fill="#0F766E"/>
    <rect x="1004" y="474" width="246" height="46" rx="15" fill="#F8FAFC"/>
    <rect x="1005" y="475" width="244" height="44" rx="14" stroke="#D8E1EA" stroke-width="2"/>
    <rect x="768" y="560" width="598" height="18" rx="9" fill="#E2E8F0"/>
    <rect x="768" y="596" width="458" height="18" rx="9" fill="#E2E8F0"/>
  </g>
  <path d="M118 170C214 128 298 112 388 118C478 124 562 160 650 226" stroke="#1E293B" stroke-width="3" stroke-linecap="round" opacity="0.3"/>
  <path d="M1268 110C1328 126 1388 158 1450 206" stroke="#99F6E4" stroke-width="3" stroke-linecap="round" opacity="0.65"/>
</svg>
