<svg width="1600" height="760" viewBox="0 0 1600 760" fill="none" xmlns="http://www.w3.org/2000/svg">
  <rect width="1600" height="760" fill="#F4F7FA"/>
  <rect width="1600" height="260" fill="#0F172A"/>
  <circle cx="1370" cy="152" r="210" fill="#123347"/>
  <circle cx="1450" cy="108" r="120" fill="#0F766E" fill-opacity="0.28"/>
  <rect x="120" y="110" width="204" height="40" rx="20" fill="#1E293B"/>
  <rect x="121" y="111" width="202" height="38" rx="19" stroke="#334155" stroke-width="2"/>
  <text x="222" y="137" fill="#E2E8F0" font-family="Segoe UI, Arial, sans-serif" font-size="18" font-weight="700" text-anchor="middle">Поставка 1.0.0</text>
  <text x="120" y="255" fill="white" font-family="Segoe UI, Arial, sans-serif" font-size="92" font-weight="700">EasyTools</text>
  <text x="120" y="312" fill="#CBD5E1" font-family="Segoe UI, Arial, sans-serif" font-size="30">Пользовательская среда для наборов, карточек данных и выпускных результатов AutoCAD.</text>
  <g filter="url(#shadow)">
    <rect x="120" y="382" width="560" height="250" rx="28" fill="white"/>
    <rect x="121" y="383" width="558" height="248" rx="27" stroke="#D8E1EA" stroke-width="2"/>
  </g>
  <text x="162" y="430" fill="#475569" font-family="Segoe UI, Arial, sans-serif" font-size="18" font-weight="700">Рабочий сценарий</text>
  <text x="162" y="485" fill="#0F172A" font-family="Segoe UI, Arial, sans-serif" font-size="34" font-weight="700">Набор → карточка → перенос → регистрация</text>
  <text x="162" y="530" fill="#475569" font-family="Segoe UI, Arial, sans-serif" font-size="24">Одна поставка, один установщик, один понятный путь для пользователя.</text>
  <rect x="162" y="566" width="184" height="42" rx="14" fill="#0F766E"/>
  <text x="254" y="593" fill="white" font-family="Segoe UI, Arial, sans-serif" font-size="18" font-weight="700" text-anchor="middle">AutoCAD 2025</text>
  <g filter="url(#shadow)">
    <rect x="740" y="332" width="740" height="332" rx="28" fill="white"/>
    <rect x="741" y="333" width="738" height="330" rx="27" stroke="#D8E1EA" stroke-width="2"/>
  </g>
  <rect x="780" y="372" width="660" height="80" rx="18" fill="#F8FAFC"/>
  <rect x="781" y="373" width="658" height="78" rx="17" stroke="#D8E1EA" stroke-width="2"/>
  <text x="816" y="405" fill="#475569" font-family="Segoe UI, Arial, sans-serif" font-size="16" font-weight="700">Карточка данных</text>
  <text x="816" y="434" fill="#0F172A" font-family="Segoe UI, Arial, sans-serif" font-size="24" font-weight="700">ФМ-0,219-3,2-К300-М27.4-20</text>
  <rect x="1354" y="392" width="42" height="42" rx="12" fill="#F8FAFC"/>
  <rect x="1355" y="393" width="40" height="40" rx="11" stroke="#D8E1EA" stroke-width="2"/>
  <path d="M1375 404L1388 413L1375 422V404Z" fill="#0F766E"/>
  <rect x="780" y="480" width="210" height="44" rx="14" fill="#0F766E"/>
  <text x="885" y="508" fill="white" font-family="Segoe UI, Arial, sans-serif" font-size="18" font-weight="700" text-anchor="middle">Применить</text>
  <rect x="1010" y="480" width="250" height="44" rx="14" fill="#F8FAFC"/>
  <rect x="1011" y="481" width="248" height="42" rx="13" stroke="#D8E1EA" stroke-width="2"/>
  <text x="1135" y="508" fill="#0F172A" font-family="Segoe UI, Arial, sans-serif" font-size="18" font-weight="700" text-anchor="middle">Копировать карточку</text>
  <rect x="780" y="556" width="624" height="54" rx="18" fill="#E2E8F0"/>
  <text x="810" y="590" fill="#475569" font-family="Segoe UI, Arial, sans-serif" font-size="18">Готовая бинарная поставка без исходного кода для публичного распространения.</text>
  <defs>
    <filter id="shadow" x="90" y="314" width="1420" height="390" filterUnits="userSpaceOnUse" color-interpolation-filters="sRGB">
      <feFlood flood-opacity="0" result="BackgroundImageFix"/>
      <feColorMatrix in="SourceAlpha" type="matrix" values="0 0 0 0 0 0 0 0 0 0 0 0 0 0 0 0 0 0 127 0" result="hardAlpha"/>
      <feOffset dy="14"/>
      <feGaussianBlur stdDeviation="15"/>
      <feComposite in2="hardAlpha" operator="out"/>
      <feColorMatrix type="matrix" values="0 0 0 0 0.0588235 0 0 0 0 0.0901961 0 0 0 0 0.164706 0 0 0 0.08 0"/>
      <feBlend mode="normal" in2="BackgroundImageFix" result="effect1_dropShadow_1_1"/>
      <feBlend mode="normal" in="SourceGraphic" in2="effect1_dropShadow_1_1" result="shape"/>
    </filter>
  </defs>
</svg>
